
Sinopse e detalhes

Desde que Bart (Bob Hoskins) retirou Danny (Jet Li) das ruas, quando tinha apenas 4 anos, sempre o tratou como um cão, tendo treinado-o para sempre atacar. Danny é hoje uma arma mortal, sendo capaz de partir para cima de qualquer pessoa após uma simples ordem, sem lhe dar qualquer chance de vitória. Isolado do mundo, Danny não tem outra escolha senão aceitar o destino escolhido por Bart. Até que, por acaso, ele encontra Sam (Morgan Freeman), um cego que ganha a vida como afinador de pianos. Sam e Victoria (Kerry Condon), sua nora, fazem com que Danny descubra uma humanidade que ele jamais acreditou que possuísse. A partir de então sua percepção da vida muda radicalmente, o que faz com que Bart e seus asseclas decidam eliminá-lo.


Format                         : Matroska
Format version                 : Version 4 / Version 2
File size                      : 476 MiB
Duration                       : 1h 42mn
Overall bit rate               : 648 Kbps
Encoded date                   : UTC 2013-06-15 16:31:35
Writing application            : mkvmerge v6.2.0 ('Promised Land') built on Apr 28 2013 12:22:01
Writing library                : libebml v1.3.0 + libmatroska v1.4.0

Video
ID                             : 1
Format                         : AVC
Format/Info                    : Advanced Video Codec
Format profile                 : High@L4.1
Format settings, CABAC         : Yes
Format settings, ReFrames      : 4 frames
Codec ID                       : V_MPEG4/ISO/AVC
Duration                       : 1h 42mn
Bit rate                       : 443 Kbps
Width                          : 704 pixels
Height                         : 288 pixels
Display aspect ratio           : 2.40:1
Frame rate mode                : Constant
Frame rate                     : 23.976 fps
Color space                    : YUV
Chroma subsampling             : 4:2:0
Bit depth                      : 8 bits
Scan type                      : Progressive
Bits/(Pixel*Frame)             : 0.091
Stream size                    : 325 MiB (68%)
Title                          : Cão de Briga - Zagor Lukas
Writing library                : x264 core 133 r2334 a3ac64b
Encoding settings              : cabac=1 / ref=3 / deblock=1:0:0 / analyse=0x3:0x113 / me=hex / subme=7 / psy=1 / psy_rd=1.00:0.00 / mixed_ref=1 / me_range=16 / chroma_me=1 / trellis=1 / 8x8dct=1 / cqm=0 / deadzone=21,11 / fast_pskip=1 / chroma_qp_offset=-2 / threads=3 / lookahead_threads=1 / sliced_threads=0 / nr=0 / decimate=1 / interlaced=0 / bluray_compat=0 / constrained_intra=0 / bframes=3 / b_pyramid=2 / b_adapt=1 / b_bias=0 / direct=1 / weightb=1 / open_gop=0 / weightp=2 / keyint=240 / keyint_min=23 / scenecut=40 / intra_refresh=0 / rc_lookahead=40 / rc=crf / mbtree=1 / crf=23.0 / qcomp=0.60 / qpmin=0 / qpmax=69 / qpstep=4 / vbv_maxrate=24000 / vbv_bufsize=24000 / crf_max=0.0 / nal_hrd=none / ip_ratio=1.40 / aq=1:1.00
Language                       : Portuguese
Default                        : Yes
Forced                         : No

Audio
ID                             : 2
Format                         : AC-3
Format/Info                    : Audio Coding 3
Mode extension                 : CM (complete main)
Format settings, Endianness    : Big
Codec ID                       : A_AC3
Duration                       : 1h 42mn
Bit rate mode                  : Constant
Bit rate                       : 192 Kbps
Channel(s)                     : 2 channels
Channel positions              : Front: L R
Sampling rate                  : 48.0 KHz
Bit depth                      : 16 bits
Compression mode               : Lossy
Stream size                    : 141 MiB (30%)
Title                          : por
Language                       : Portuguese
Default                        : Yes
Forced                         : No

Text #1
ID                             : 3
Format                         : VobSub
Muxing mode                    : zlib
Codec ID                       : S_VOBSUB
Codec ID/Info                  : The same subtitle format used on DVDs
Language                       : Portuguese
Default                        : No
Forced                         : No

Text #2
ID                             : 4
Format                         : VobSub
Muxing mode                    : zlib
Codec ID                       : S_VOBSUB
Codec ID/Info                  : The same subtitle format used on DVDs
Language                       : English
Default                        : No
Forced                         : No

Text #3
ID                             : 5
Format                         : VobSub
Muxing mode                    : zlib
Codec ID                       : S_VOBSUB
Codec ID/Info                  : The same subtitle format used on DVDs
Language                       : English
Default                        : No
Forced                         : No

Text #4
ID                             : 6
Format                         : ASS
Codec ID                       : S_TEXT/ASS
Codec ID/Info                  : Advanced Sub Station Alpha
Compression mode               : Lossless
Title                          : Credito
Language                       : Portuguese
Default                        : Yes
Forced                         : No

Menu
00:00:00.000                   : en:Chapter 01
00:03:16.334                   : en:Chapter 02
00:12:49.467                   : en:Chapter 03
00:22:36.101                   : en:Chapter 04
00:36:57.435                   : en:Chapter 05
00:47:34.669                   : en:Chapter 06
00:56:12.236                   : en:Chapter 07
01:08:24.403                   : en:Chapter 08
01:16:13.803                   : en:Chapter 09
01:26:31.803                   : en:Chapter 10
01:35:29.504                   : en:Chapter 11

